<svg width="119" height="43" viewBox="0 0 119 43" fill="none" xmlns="http://www.w3.org/2000/svg">
<path d="M15.384 8.608C22.008 8.608 26.808 13.984 26.808 21.568C26.808 29.2 22.008 34.576 15.384 34.576C11.928 34.576 9.048 33.088 7.08 30.496V42.256H0.0720001V9.184H7.08V12.64C9.048 10.096 11.928 8.608 15.384 8.608ZM13.368 28.672C17.256 28.672 19.992 25.744 19.992 21.568C19.992 17.44 17.256 14.512 13.368 14.512C9.96 14.512 7.464 17.008 7.08 20.608V22.528C7.464 26.176 9.96 28.672 13.368 28.672ZM38.7675 13.792C40.3995 10.576 43.4715 8.608 47.2635 8.608V14.512C42.0795 14.512 38.7675 17.488 38.7675 22.144V34H31.7595V9.184H38.7675V13.792ZM63.0184 28.384C64.9864 28.384 67.3864 27.472 68.7304 26.176L73.1944 30.736C70.9864 33.04 66.7144 34.576 63.0664 34.576C55.6744 34.576 49.9144 29.152 49.9144 21.52C49.9144 14.032 55.4344 8.608 62.6824 8.608C70.4584 8.608 75.0184 14.512 75.0184 23.872H57.1144C57.9304 26.56 60.0904 28.384 63.0184 28.384ZM62.9704 14.8C60.3304 14.8 58.1224 16.336 57.2104 18.832H68.2984C67.6264 16.384 65.8024 14.8 62.9704 14.8ZM79.7595 34V0.447997H86.7675V34H79.7595ZM105.077 34.576C97.6845 34.576 91.4925 28.624 91.4925 21.568C91.4925 14.512 97.6845 8.608 105.077 8.608C112.421 8.608 118.565 14.512 118.565 21.568C118.565 28.624 112.421 34.576 105.077 34.576ZM105.077 28.672C108.773 28.672 111.893 25.408 111.893 21.568C111.893 17.728 108.773 14.512 105.077 14.512C101.333 14.512 98.2125 17.728 98.2125 21.568C98.2125 25.408 101.333 28.672 105.077 28.672Z" fill="#8921FA"/>
</svg>
